<?xml version="1.0" standalone="no"?>
<!DOCTYPE svg PUBLIC "-//W3C//DTD SVG 20010904//EN"
 "http://www.w3.org/TR/2001/REC-SVG-20010904/DTD/svg10.dtd">
<svg version="1.0" xmlns="http://www.w3.org/2000/svg"
 width="512.000000pt" height="512.000000pt" viewBox="0 0 512.000000 512.000000"
 preserveAspectRatio="xMidYMid meet">
<metadata>
Created by potrace 1.14, written by Peter Selinger 2001-2017
</metadata>
<g transform="translate(0.000000,512.000000) scale(0.100000,-0.100000)"
fill="#000000" stroke="none">
<path d="M2417 5055 c-32 -8 -90 -31 -130 -50 l-73 -36 -60 28 c-203 95 -429
-52 -427 -278 0 -55 29 -136 66 -183 13 -18 10 -28 -33 -110 -27 -50 -63 -127
-81 -171 -43 -105 -42 -104 -87 -94 -120 26 -467 29 -604 4 -16 -3 -38 -7 -50
-9 -197 -36 -372 -125 -476 -242 -197 -219 -204 -547 -23 -919 58 -118 138
-247 221 -355 l60 -79 -66 -88 c-220 -295 -340 -582 -346 -829 -2 -60 -4 -66
-35 -90 -157 -120 -153 -364 9 -483 83 -61 209 -73 299 -28 l50 24 37 -19 c65
-33 204 -77 302 -94 66 -12 150 -18 275 -18 163 -1 211 2 356 20 l45 6 29 -68
c123 -297 307 -562 484 -696 303 -229 643 -192 932 101 139 141 251 319 363
576 40 91 25 85 181 69 97 -10 358 -12 440 -2 111 13 219 39 315 77 l95 38 50
-26 c68 -34 176 -35 252 -2 95 42 168 146 176 249 7 92 -40 204 -107 256 -31
23 -35 31 -32 64 1 20 -1 69 -5 107 -13 118 -21 153 -65 277 -57 158 -147 320
-273 487 -31 42 -59 81 -63 87 -5 7 6 28 24 50 49 61 164 238 212 327 104 191
163 390 164 554 1 122 -17 204 -63 298 -102 209 -342 355 -645 391 -25 3 -56
7 -70 10 -30 5 -312 5 -355 -1 -54 -7 -150 -17 -174 -19 -20 -1 -28 9 -56 76
-105 248 -224 436 -370 584 -117 118 -236 191 -376 229 -63 17 -222 17 -292 0z
m303 -114 c231 -73 467 -341 624 -710 20 -45 36 -84 36 -86 0 -2 -17 -7 -37
-11 -168 -29 -584 -158 -740 -229 -41 -19 -39 -20 -122 15 -188 77 -635 210
-708 210 -13 0 -23 5 -23 11 0 26 137 309 149 309 5 0 22 -5 38 -11 15 -5 56
-10 91 -10 113 0 218 66 269 168 35 73 38 174 6 244 l-21 47 48 22 c128 60
266 71 390 31z m-1255 -864 c22 -4 60 -9 85 -12 25 -4 46 -8 48 -10 2 -1 -6
-30 -17 -63 -53 -155 -126 -471 -147 -627 -4 -33 -9 -63 -10 -67 -1 -5 -2 -21
-3 -37 -1 -25 -18 -44 -108 -118 -157 -128 -182 -150 -362 -331 l-164 -164
-23 28 c-56 67 -176 257 -223 351 -184 368 -169 667 41 859 82 74 237 148 358
170 14 3 30 6 37 9 7 2 45 7 85 11 40 3 74 7 76 9 5 4 289 -3 327 -8z m2640
-6 c380 -56 600 -257 610 -556 4 -114 -7 -184 -51 -315 -51 -152 -187 -394
-291 -519 l-29 -34 -59 63 c-154 162 -314 310 -496 458 -76 61 -76 61 -83 119
-7 66 -9 76 -37 228 -22 120 -86 373 -119 474 -12 35 -20 65 -18 66 7 7 64 15
148 21 47 4 86 8 88 9 7 6 277 -5 337 -14z m-2205 -72 c122 -30 460 -138 502
-160 18 -10 3 -20 -133 -88 -169 -84 -266 -137 -346 -188 -29 -18 -54 -33 -57
-33 -5 0 -27 -14 -209 -135 -64 -43 -119 -76 -121 -74 -3 3 20 133 50 279 18
94 106 408 121 433 5 9 38 3 193 -34z m1552 -54 c15 -49 44 -153 63 -230 34
-138 40 -166 51 -235 3 -19 7 -41 10 -48 2 -8 7 -37 10 -64 5 -41 4 -49 -7
-42 -8 4 -66 42 -129 84 -174 115 -423 262 -535 314 -22 11 -79 38 -127 62
l-88 42 79 31 c162 61 372 123 596 174 41 10 48 2 77 -88z m-780 -221 c142
-63 349 -172 498 -262 173 -104 419 -271 435 -296 25 -41 40 -263 40 -611 0
-238 -10 -489 -21 -506 -1 -3 -4 -25 -6 -48 -2 -51 -18 -66 -203 -188 -244
-163 -562 -340 -775 -432 l-76 -33 -74 33 c-265 116 -556 283 -900 517 -82 55
-78 45 -97 282 -11 126 -10 650 0 770 20 228 18 220 54 242 15 10 69 46 118
80 223 155 417 268 670 392 181 88 216 104 227 105 5 1 54 -20 110 -45z
m-1277 -686 c-24 -182 -23 -821 1 -960 2 -16 1 -28 -2 -28 -28 0 -385 335
-504 473 l-32 37 55 63 c118 134 456 447 483 447 2 0 1 -15 -1 -32z m2409 -19
c171 -143 465 -434 466 -461 1 -28 -500 -506 -531 -508 -4 0 -5 17 -4 38 23
266 23 735 0 945 -2 20 -1 37 2 37 3 0 33 -23 67 -51z m661 -710 c109 -161
211 -381 231 -495 3 -16 7 -37 10 -47 3 -9 7 -51 9 -92 l4 -74 -48 1 c-64 0
-127 -18 -176 -52 -51 -35 -74 -63 -105 -125 -32 -65 -33 -178 -2 -243 l20
-42 -42 -19 c-159 -70 -391 -97 -661 -77 -117 9 -175 17 -175 25 0 3 11 39 25
80 56 165 151 603 154 713 1 32 13 44 121 128 25 19 47 37 50 40 3 3 39 34 80
69 92 79 370 360 370 375 1 18 66 -61 135 -165z m-3518 2 c176 -176 388 -365
451 -400 10 -5 23 -55 38 -147 32 -189 30 -180 49 -264 9 -41 18 -82 20 -90 6
-30 77 -273 90 -311 14 -38 13 -39 -8 -40 -12 -1 -33 -2 -47 -4 -125 -13 -183
-16 -295 -16 -71 1 -143 3 -160 5 -126 15 -225 39 -313 74 -50 19 -62 28 -56
41 33 74 43 120 38 176 -12 155 -136 275 -286 279 l-60 1 6 68 c19 214 118
440 309 705 33 45 61 82 63 82 2 0 75 -71 161 -159z m2646 -528 c-39 -230
-114 -540 -160 -660 -13 -35 -19 -42 -37 -38 -211 44 -686 186 -686 205 0 3
62 36 138 73 194 95 400 214 587 338 88 60 161 108 161 108 1 1 -1 -11 -3 -26z
m-1924 -67 c234 -154 453 -279 664 -378 48 -23 87 -44 87 -48 0 -11 -401 -142
-510 -165 -8 -2 -44 -10 -80 -19 -113 -26 -116 -26 -129 -3 -10 21 -48 146
-76 252 -36 140 -97 445 -88 445 3 0 62 -38 132 -84z m978 -517 c115 -46 325
-117 428 -145 114 -31 104 -29 208 -52 49 -11 91 -22 93 -25 7 -6 -59 -155
-112 -255 -150 -280 -343 -474 -539 -542 -69 -24 -193 -32 -263 -18 -172 37
-357 185 -503 403 -55 81 -188 337 -204 392 -6 23 1 28 65 38 19 3 69 15 110
26 41 12 86 23 100 25 43 9 320 102 425 143 55 22 103 40 107 40 4 1 42 -13
85 -30z"/>
<path d="M2430 3483 c-10 -7 -21 -29 -25 -50 -10 -56 -47 -186 -57 -199 -4 -6
-32 -19 -61 -29 l-54 -18 -105 62 c-58 33 -111 61 -120 61 -13 0 -198 -180
-198 -193 0 -3 29 -56 64 -117 l65 -111 -21 -57 c-12 -31 -22 -58 -23 -59 -1
-2 -55 -17 -121 -34 -65 -17 -125 -36 -131 -41 -18 -15 -18 -262 0 -275 6 -6
66 -24 132 -42 65 -18 120 -33 120 -34 0 -1 11 -27 23 -58 l23 -57 -58 -99
c-33 -54 -62 -106 -66 -117 -6 -14 13 -39 85 -112 50 -52 99 -94 108 -94 8 0
32 11 52 25 20 14 39 25 42 25 3 0 35 18 70 39 l65 40 43 -20 c24 -11 50 -23
58 -28 9 -5 29 -59 47 -126 17 -64 36 -122 42 -128 6 -6 63 -10 137 -10 104 0
129 3 138 15 7 9 25 68 41 130 l28 115 58 25 57 25 110 -63 c61 -35 117 -64
125 -64 7 0 55 42 106 94 l92 95 -17 33 c-9 18 -39 70 -66 116 l-50 83 23 57
c12 31 23 58 24 59 0 1 55 16 120 34 66 17 125 36 130 41 14 13 16 265 1 277
-6 5 -65 23 -131 41 l-121 31 -23 60 c-21 55 -22 61 -7 84 9 13 24 39 34 57
11 18 34 59 52 91 l32 57 -93 95 c-51 52 -100 95 -108 95 -9 0 -65 -29 -124
-64 l-109 -63 -49 23 c-27 13 -53 24 -57 24 -5 0 -21 52 -38 116 -16 64 -33
123 -39 130 -14 19 -250 25 -275 7z"/>
</g>
</svg>
